<?xml version="1.0" encoding="UTF-8"?>
<svg id="Layer_1" data-name="Layer 1" xmlns="http://www.w3.org/2000/svg" viewBox="0 0 633.79 135.95">
  <defs>
    <style>
      .cls-1 {
        fill: #fff;
      }
    </style>
  </defs>
  <g>
    <path class="cls-1" d="M302.16,115.63l-1.03-28.97h4.97c3.94,21.94,14.4,34.63,31.89,34.63,15.77,0,25.2-9.43,25.2-22.46,0-14.4-7.54-19.89-29.83-29.32-17.66-7.37-30.86-14.92-30.86-34.63,0-17.83,13.37-31.89,36-31.89,13.2,0,25.55,3.77,34.29,9.94v25.2h-4.97c-2.57-19.54-12.86-29.66-29.32-29.66-13.71,0-21.6,8.74-21.6,20.4,0,13.2,6,18.34,25.2,26.4,23.32,9.77,35.66,18.52,35.66,37.55,0,21.43-18.17,33.95-39.77,33.95-15.43,0-28.63-4.8-35.83-11.15Z"/>
    <path class="cls-1" d="M404.51,35.91h24.52v6.52h-24.52v56.75c0,12.69,4.63,17.83,14.23,17.83,5.32,0,8.91-1.54,13.54-4.97l1.54,2.06c-4.46,6.52-12,12.69-22.63,12.69-12.34,0-21.77-6.69-21.77-25.03v-59.32h-11.66v-2.4c9.77-5.32,17.66-14.57,23.32-25.37h3.43v21.26Z"/>
    <path class="cls-1" d="M501.2,68.14v3.6h-56.92c-1.2,27.77,12.51,43.55,30.35,43.55,12.34,0,19.72-5.83,25.72-15.26l2.06,1.03c-4.12,14.92-15.95,25.72-33.78,25.72-24.34,0-38.23-19.72-38.23-43.72,0-28.12,16.46-48.86,38.57-48.86s32.23,14.74,32.23,33.94ZM444.8,66.77h41.49c0-15.43-5.32-27.09-18.69-27.09s-21.09,11.83-22.8,27.09Z"/>
    <path class="cls-1" d="M575.27,68.14v3.6h-56.92c-1.2,27.77,12.51,43.55,30.35,43.55,12.34,0,19.72-5.83,25.72-15.26l2.06,1.03c-4.12,14.92-15.95,25.72-33.78,25.72-24.34,0-38.23-19.72-38.23-43.72,0-28.12,16.46-48.86,38.57-48.86s32.23,14.74,32.23,33.94ZM518.86,66.77h41.49c0-15.43-5.32-27.09-18.69-27.09s-21.09,11.83-22.8,27.09Z"/>
    <path class="cls-1" d="M603.38,112.03c0,6.69,3.94,8.06,15.26,8.57v4.46h-42.52v-4.46c9.09-.52,11.83-1.89,11.83-8.57v-61.37l-11.14-6v-1.89l25.2-8.57h2.06l-.69,24.34c9.43-17.49,13.54-24.34,23.15-24.34,3.08,0,5.31,1.2,6.51,2.74v12.86h-2.4c-10.46,0-17.66.86-27.26,12.51v49.72Z"/>
  </g>
  <g>
    <g>
      <path class="cls-1" d="M207.58,100.11c0,9.18.61,22.44,1.14,24.89h-27.62c-.68-1.75-1.22-6.3-1.27-8.11-3.67,5.1-9.79,10.21-24.74,10.21-20.88,0-30.67-13.5-30.67-28.19,0-20.6,16.57-29.85,43.07-29.85h11.63v-4.95c0-5.87-2.14-10.79-11.44-10.79-8.6,0-10.71,3.62-11.64,9.71h-27.53c1.29-15.86,10.94-29.24,40.11-29.1,26.36.15,38.96,10.33,38.96,31.75v34.44ZM179.12,85.29h-8.33c-13.02,0-17.27,4.26-17.27,11.48,0,5.57,3.28,10.31,10.91,10.31,13.04,0,14.7-9.08,14.7-19.34v-2.44Z"/>
      <path class="cls-1" d="M218.58,125V1.01h29.4v123.99h-29.4Z"/>
      <path class="cls-1" d="M260.01,125V1.01h29.4v123.99h-29.4Z"/>
    </g>
    <path class="cls-1" d="M76.67,95.96c-4.45,2.66-9.49,3.98-15.15,3.98-9.12,0-16.5-3.17-22.16-9.52-5.65-6.35-8.48-14.83-8.48-25.45s2.83-19.1,8.48-25.45c5.65-6.35,13.04-9.52,22.16-9.52,5.65,0,10.7,1.33,15.15,3.98,4.44,2.66,7.88,6.52,10.3,11.6h32.55c-3.46-13.16-10.33-23.54-20.6-31.16-10.27-7.62-22.62-11.43-37.05-11.43-11.77,0-22.31,2.63-31.6,7.88-9.29,5.25-16.53,12.58-21.73,21.99C3.35,42.27.75,52.97.75,64.97s2.6,22.68,7.79,32.03c1.39,2.5,2.93,4.83,4.61,7.04l-8.3,30.9,29.43-13.98c8.28,3.87,17.47,5.82,27.57,5.82,14.43,0,26.77-3.78,37.05-11.34,10.27-7.56,17.14-17.92,20.6-31.08h-32.55c-2.42,5.08-5.86,8.95-10.3,11.6Z"/>
  </g>
</svg>