<?xml version="1.0" encoding="UTF-8"?>
<svg id="Layer_1" data-name="Layer 1" xmlns="http://www.w3.org/2000/svg" viewBox="0 0 253.92 275.48">
  <defs>
    <style>
      .cls-1 {
        fill: #fff;
      }
    </style>
  </defs>
  <path d="M237.66,62.15c-.1-.18-.21-.34-.31-.52-7.91-14.97-18.7-27.58-32.46-37.79C185.39,9.39,162.27,1.58,135.61.27c-.57-.03-1.16-.03-1.74-.06-2.1-.08-4.17-.21-6.31-.21-.2,0-.4.02-.6.02-.2,0-.4-.02-.6-.02-2.26,0-4.45.13-6.66.22-.45.02-.9.02-1.35.05-26.68,1.3-49.81,9.05-69.32,23.4-16.25,11.96-28.41,27.3-36.49,45.99C4.18,87.47,0,107.37,0,129.37c0,25.06,5.42,47.34,16.26,66.85.1.18.21.34.31.52,2.9,5.5,6.2,10.68,9.89,15.54l-16.96,63.21,60.36-28.68c14.57,6.66,30.72,10.42,48.45,11.3.57.03,1.16.03,1.74.06,2.1.08,4.17.21,6.31.21.2,0,.4-.02.6-.02.2,0,.4.02.6.02,2.26,0,4.45-.13,6.66-.22.45-.02.9-.02,1.35-.05,26.68-1.3,49.81-9.05,69.32-23.4,16.25-11.96,28.41-27.3,36.49-45.99,8.35-17.82,12.54-37.72,12.54-59.71,0-25.06-5.42-47.34-16.26-66.85Z"/>
  <path class="cls-1" d="M34.86,73.36c9.07-16.42,21.71-29.22,37.94-38.39,16.22-9.17,34.61-13.75,55.17-13.75,25.19,0,46.75,6.65,64.69,19.95,17.93,13.3,29.92,31.44,35.97,54.41h-56.83c-4.23-8.87-10.23-15.61-17.99-20.25-7.76-4.63-16.58-6.95-26.45-6.95-15.92,0-28.82,5.54-38.69,16.62-9.87,11.09-14.81,25.9-14.81,44.44s4.94,33.35,14.81,44.43c9.87,11.09,22.77,16.63,38.69,16.63,9.87,0,18.69-2.31,26.45-6.96,7.76-4.63,13.75-11.38,17.99-20.25h56.83c-6.05,22.97-18.04,41.06-35.97,54.26-17.94,13.2-39.5,19.8-64.69,19.8-20.55,0-38.95-4.58-55.17-13.75-16.22-9.17-28.87-21.92-37.94-38.24-9.07-16.32-13.6-34.96-13.6-55.92s4.53-39.65,13.6-56.07Z"/>
</svg>