<?xml version="1.0" encoding="UTF-8"?>
<svg xmlns="http://www.w3.org/2000/svg" viewBox="0 0 256 256" shape-rendering="geometricPrecision">
  <g transform="translate(14, 5) scale(0.9)">
    <path d="M236.65,62.84c-.1-.18-.21-.34-.31-.51-7.83-14.83-18.53-27.33-32.16-37.44C184.86,10.56,161.95,2.82,135.53,1.52c-.57-.03-1.15-.03-1.72-.06-2.08-.08-4.13-.21-6.25-.21-.2,0-.4.02-.6.02-.2,0-.39-.02-.6-.02-2.24,0-4.41.13-6.6.22-.44.02-.9.02-1.34.04-26.44,1.28-49.36,8.97-68.69,23.19-16.11,11.85-28.15,27.06-36.16,45.57C5.3,87.93,1.16,107.65,1.16,129.44c0,24.83,5.37,46.9,16.11,66.24.1.18.21.34.31.51,2.86,5.41,6.23,10.4,9.86,15.19l-16.87,62.84,59.88-28.45c14.43,6.59,30.39,10.36,47.94,11.22.57.03,1.15.03,1.72.06,2.08.08,4.13.21,6.25.21.2,0,.4-.02.6-.02.2,0,.39.02.6.02,2.24,0,4.41-.13,6.6-.22.44-.02.89-.02,1.34-.04,26.44-1.28,49.36-8.97,68.69-23.19,16.11-11.85,28.15-27.05,36.16-45.57,8.28-17.66,12.42-37.37,12.42-59.17,0-24.83-5.37-46.9-16.11-66.24Z" fill="#ffffff" stroke="#1a1a2e" stroke-width="8"/>
    <path d="M127.18,73.93c9.08,0,17.18,2.13,24.32,6.39,7.13,4.26,12.65,10.47,16.54,18.62h52.25c-5.56-21.12-16.59-37.8-33.08-50.03-16.49-12.23-36.32-18.34-59.48-18.34-18.9,0-35.81,4.22-50.73,12.65-14.92,8.43-26.54,20.2-34.88,35.3-8.34,15.1-12.51,32.29-12.51,51.56s4.17,36.41,12.51,51.42c8.34,15.01,19.97,26.73,34.88,35.16,14.91,8.43,31.83,12.65,50.73,12.65,23.16,0,42.99-6.07,59.48-18.2,16.49-12.13,27.52-28.77,33.08-49.89h-52.25c-3.89,8.16-9.41,14.36-16.54,18.62-7.14,4.27-15.24,6.4-24.32,6.4-14.64,0-26.5-5.1-35.58-15.29-9.08-10.19-13.62-23.8-13.62-40.85s4.54-30.67,13.62-40.86c9.08-10.19,20.94-15.29,35.58-15.29Z" fill="#0a0a0f"/>
  </g>
</svg>
